<svg width="883.04" height="107.24" version="1.1" viewBox="0 0 883.04 107.24" xmlns="http://www.w3.org/2000/svg">
 <path d="m385.08 17.734c-7.0195 0-12.555 1.4207-16.521 4.4297-3.9751 2.9471-6.496 7.6537-7.6113 13.887l-0.49219 2.7422h-6.1875l-1.9336 11.232h6.1875l-7.7168 43.629h13.359l7.7168-43.629h9.7207l1.9336-11.232h-9.7031l0.42188-2.3203v-0.017578c0.47826-2.8097 1.4265-4.6182 2.707-5.6426 1.273-1.0184 3.4425-1.6523 6.5918-1.6523h1.0195l0.1582-0.98438 1.7578-10.441h-1.4082zm-134.43 7.9902v13.061h-6.1875v11.232h6.1875v27.861c0 5.3442 1.3704 9.4626 4.3066 12.041 2.8811 2.5297 6.9489 3.7266 12.023 3.7266h9.7734v-11.426h-7.8574c-2.047 0-3.321-0.41619-3.9375-0.93164-0.56835-0.5827-0.9668-1.6402-0.9668-3.4102v-27.861h12.762v-11.232h-12.762v-13.061h-13.342zm149.24 0v13.061h-6.2051v11.232h6.2051v27.861c0 5.3442 1.3704 9.4626 4.3066 12.041 2.8811 2.5297 6.9489 3.7266 12.023 3.7266h9.7559v-11.426h-7.8574c-2.0556 0-3.3242-0.41316-3.9375-0.93164-0.56835-0.5827-0.96679-1.6402-0.96679-3.4102v-27.861h12.762v-11.232h-12.762v-13.061h-13.324zm-188.35 12.199v0.001953c-5.3149 0-10.099 1.1508-14.289 3.4785h-0.01758c-4.1281 2.3304-7.3817 5.6967-9.7012 10.004-2.2614 4.2567-3.377 9.1917-3.377 14.748 0 5.5607 1.1533 10.537 3.4785 14.854v0.013672c2.3824 4.2353 5.6604 7.5967 9.7754 9.9863h0.01367c4.1851 2.3251 8.9244 3.4785 14.117 3.4785 6.3557 0 11.784-1.5789 16.139-4.7949 4.3697-3.2441 7.4266-7.4332 9.0879-12.482l0.51172-1.5645h-14.102l-0.33008 0.65234c-2.2442 4.5474-5.7962 6.6777-11.307 6.6777-3.8158 0-6.911-1.1494-9.4922-3.4961-2.2146-2.0134-3.1642-4.8511-3.6875-8.0371h39.336l0.1582-1c0.26613-1.6633 0.4043-3.5018 0.4043-5.5215 0-5.2485-1.1239-9.9412-3.3906-14.008-2.2592-4.1197-5.4496-7.3366-9.5098-9.5996-4.0619-2.264-8.6923-3.3906-13.818-3.3906zm253.31 0-1.1953 0.001953c-3.7865 0-7.1506 0.80435-10.02 2.4434-1.8652 1.0463-3.1207 2.8036-4.5 4.4297v-6.0117h-13.254v54.859h13.254v-28.811c0-5.1651 1.0757-8.5739 2.8828-10.389 1.9499-1.8878 4.8312-2.9004 8.877-2.9004h3.9551v-13.623zm33.875 0v0.001953c-5.3149 0-10.097 1.1508-14.287 3.4785h-0.01953c-4.1281 2.3304-7.3816 5.6967-9.7012 10.004-2.2614 4.2567-3.377 9.1917-3.377 14.748 0 5.5607 1.1533 10.537 3.4785 14.854v0.013672c2.3824 4.2353 5.6604 7.5967 9.7754 9.9863h0.01368c4.1851 2.3251 8.9244 3.4785 14.117 3.4785 6.3557 0 11.784-1.5789 16.139-4.7949 4.3697-3.2441 7.4267-7.4332 9.0879-12.482l0.51172-1.5645h-14.102l-0.33008 0.65234c-2.2442 4.5474-5.7962 6.6777-11.307 6.6777-3.8158 0-6.911-1.1494-9.4922-3.4961-2.2146-2.0134-3.1642-4.8511-3.6875-8.0371h39.336l0.15821-1c0.26613-1.6633 0.40429-3.5018 0.40429-5.5215 0-5.2485-1.1239-9.9412-3.3906-14.008-2.2592-4.1197-5.4496-7.3366-9.5098-9.5996-4.0619-2.264-8.6923-3.3906-13.818-3.3906zm61.109 0 0.00195 0.001953c-5.3149 0-10.099 1.1508-14.289 3.4785h-0.01953c-4.1281 2.3304-7.3816 5.6967-9.7012 10.004-2.2614 4.2567-3.377 9.1917-3.377 14.748 0 5.5607 1.1533 10.537 3.4785 14.854v0.013672c2.3824 4.2353 5.6623 7.5967 9.7773 9.9863h0.01367c4.1851 2.3251 8.9224 3.4785 14.115 3.4785 6.3557 0 11.784-1.5789 16.139-4.7949 4.3697-3.2441 7.4266-7.4332 9.0879-12.482l0.51172-1.5645h-14.102l-0.33008 0.65234c-2.2442 4.5474-5.7962 6.6777-11.307 6.6777-3.8158 0-6.911-1.1494-9.4922-3.4961-2.2146-2.0134-3.1642-4.8511-3.6875-8.0371h39.336l0.1582-1c0.26613-1.6633 0.40625-3.5018 0.40625-5.5215 0-5.2485-1.1239-9.9412-3.3906-14.008-2.2592-4.1197-5.4515-7.3366-9.5117-9.5996-4.0619-2.264-8.6923-3.3906-13.818-3.3906zm-413.51 0.001953c-4.2629 0.079215-8.1463 0.88814-11.582 2.707-3.5043 1.8195-6.2645 4.55-8.209 8.1035-1.955 3.5728-2.9004 7.8456-2.9004 12.762v32.15h13.131v-30.533c0-4.5004 1.1086-7.7453 3.1992-9.9492h0.01758c2.1171-2.2887 4.9205-3.4277 8.7363-3.4277s6.852 1.1626 8.9473 3.4277c2.0906 2.2036 3.1992 5.4485 3.1992 9.9492v30.533h13.148v-32.15c0-4.9158-0.94544-9.1887-2.9004-12.762-1.9444-3.5536-4.7047-6.284-8.209-8.1035-3.4232-1.8123-7.3109-2.707-11.604-2.707-0.84447 0-4.0596-0.016867-4.9727 0h-0.00195zm173.72 0c-6.1588 0-11.822 1.4813-16.893 4.4453-4.9954 2.9578-8.9737 7.0012-11.865 12.061v0.017578c-2.8299 5.0675-4.2539 10.678-4.2539 16.766 0 4.4871 0.97553 8.5441 2.9199 12.098v0.013672c2.0072 3.5459 4.8169 6.323 8.3672 8.2656 3.559 1.9474 7.6775 2.8965 12.287 2.8965 6.1546 0 11.823-1.4404 16.893-4.3379 5.0576-2.9557 9.105-7.0027 12.061-12.061 2.9628-5.0696 4.4453-10.688 4.4453-16.785 0-4.5597-1.0419-8.6286-3.1289-12.129-2.0071-3.5364-4.8363-6.3095-8.4375-8.2461h-0.01953c-3.6164-2.0056-7.7662-3.0039-12.375-3.0039zm296.6 0c-4.1326 0-7.8628 0.68557-11.145 2.0918-3.2108 1.4047-5.7528 3.3967-7.541 5.9414-1.779 2.4692-2.707 5.2743-2.707 8.2969 0 3.6346 0.96788 6.7126 2.9531 9.0527v0.017578h0.01758c1.9532 2.2226 4.2793 3.9064 6.9258 4.9922 2.5402 1.0422 5.78 2.0955 9.7383 3.1816 4.0261 1.1323 6.9343 2.1811 8.6309 3.0586h0.01758c1.6115 0.80574 2.1973 1.7379 2.1973 3.3223 0 1.4666-0.58729 2.547-2.0566 3.5859-1.369 0.94779-3.4642 1.5117-6.3633 1.5117-2.7072 0-4.8548-0.65529-6.5918-1.9336-1.6996-1.3597-2.5434-2.8898-2.707-4.7988l-0.08789-1.0723h-13.57l0.05274 1.2305c0.13599 3.3995 1.2359 6.5367 3.2695 9.3164v0.017578c2.0307 2.7076 4.7862 4.857 8.1738 6.4512v0.017578h0.01953c3.4698 1.5347 7.3686 2.2852 11.637 2.2852 4.1877 0 7.8742-0.68063 11.039-2.0918 3.2108-1.4047 5.7528-3.379 7.541-5.9238 1.7873-2.5435 2.707-5.4796 2.707-8.6836v-0.035157c-0.0675-3.5704-1.0707-6.5877-3.0586-8.8594-1.8849-2.1541-4.1764-3.7851-6.8027-4.8691-2.4949-1.1162-5.6499-2.174-9.4922-3.1992h-0.01953c-2.8127-0.81276-4.9272-1.4766-6.3457-1.9688-1.3387-0.52383-2.4429-1.2002-3.3379-2.0391-0.80406-0.75383-1.1426-1.546-1.1426-2.6543 0-1.4378 0.503-2.421 1.7754-3.3223 1.2375-0.87658 3.1812-1.3887 5.8887-1.3887 2.7311 0 4.7454 0.64034 6.2031 1.8281 1.4778 1.2041 2.257 2.6996 2.4258 4.7812l0.08985 1.0898h13.201l-0.05469-1.248c-0.26667-5.4667-2.4046-9.9422-6.3281-13.131l-0.00195-0.001953h-0.00196l-0.00195 0.001953h-0.00195-0.00196c-8.4e-4 1.52e-4 -0.00311-4.7e-5 -0.0039 0h-0.00196-0.00195c-3.8646-3.2487-8.9686-4.8516-15.133-4.8516h-0.00196zm205.61 1.0879c-3.8807 0-7.3993 0.88806-10.557 2.6641-3.1573 1.7102-5.5906 4.243-7.3008 7.5977v-9.2734h-6.9062v53.871h6.9062v-29.205c0-6.3807 1.5133-11.249 4.5391-14.604s7.0699-5.0312 12.135-5.0312c4.9335 0 8.8141 1.5452 11.643 4.6367 2.8285 3.0918 4.2441 7.5657 4.2441 13.42v30.783h6.8066v-29.205c0-6.3807 1.5133-11.249 4.5391-14.604s7.0718-5.0312 12.137-5.0312c4.8675 0 8.7145 1.5452 11.543 4.6367 2.8285 3.0918 4.2441 7.5657 4.2441 13.42v30.783h6.8066v-31.572c0-7.5647-2.0051-13.321-6.0176-17.268-3.9467-4.0125-9.0779-6.0176-15.393-6.0176v-0.001953c-4.4727 0-8.4851 1.1529-12.037 3.4551-3.4862 2.2365-5.9532 5.492-7.4004 9.7676-1.5787-4.3413-4.1433-7.6307-7.6953-9.8672-3.4865-2.2365-7.5661-3.3555-12.236-3.3555zm-125.6 0.19531c-5.0647 0-9.5709 1.1509-13.518 3.4531-3.9467 2.2364-7.0389 5.4601-9.2754 9.6699-2.2365 4.1442-3.3535 9.0124-3.3535 14.604 0 5.5909 1.117 10.491 3.3535 14.701 2.2365 4.144 5.3287 7.3658 9.2754 9.668 3.9465 2.2365 8.4527 3.3555 13.518 3.3555 6.578 0 12.038-1.6766 16.379-5.0312 4.3413-3.3547 7.1369-7.795 8.3867-13.32h-7.4004c-0.92093 3.9467-2.928 7.037-6.0195 9.2734-3.026 2.1707-6.807 3.2578-11.346 3.2578-3.6178 0-6.8753-0.82233-9.7695-2.4668-2.8943-1.6445-5.196-4.1115-6.9062-7.4004-1.6445-3.2885-2.4668-7.3009-2.4668-12.037s0.82233-8.7163 2.4668-11.939c1.7103-3.2889 4.012-5.7559 6.9062-7.4004s6.1517-2.4668 9.7695-2.4668c4.5389 0 8.3199 1.119 11.346 3.3555 3.0916 2.1707 5.0987 5.1973 6.0195 9.0781h7.4004c-1.2498-5.6571-4.0454-10.131-8.3867-13.42-4.2758-3.2889-9.7354-4.9336-16.379-4.9336zm61.27 0.00586c-5.0651 0-9.6366 1.1509-13.715 3.4531-4.0782 2.2364-7.3019 5.4582-9.6699 9.668-2.368 4.1445-3.5508 9.0126-3.5508 14.604s1.1509 10.491 3.4531 14.701c2.368 4.144 5.5578 7.3677 9.5703 9.6699 4.0785 2.2365 8.65 3.3535 13.715 3.3535l0.00196 0.001954c5.0647 0 9.6685-1.119 13.812-3.3555 4.144-2.302 7.3996-5.5576 9.7676-9.7676s3.5527-9.0782 3.5527-14.604c0-5.5913-1.1847-10.46-3.5527-14.604-2.3022-4.2097-5.5259-7.4315-9.6699-9.668-4.0785-2.3022-8.65-3.4531-13.715-3.4531zm-0.09766 6.0176c3.552 0 6.8394 0.82233 9.8652 2.4668 3.0257 1.5787 5.4609 4.0119 7.3027 7.3008 1.8418 3.2235 2.7617 7.2037 2.7617 11.939s-0.9538 8.7482-2.8613 12.037c-1.8417 3.2231-4.275 5.6563-7.3008 7.3008-3.0258 1.5787-6.3152 2.3691-9.8672 2.3691s-6.8414-0.79047-9.8672-2.3691c-2.96-1.6444-5.3594-4.0776-7.2012-7.3008-1.776-3.2885-2.6641-7.3009-2.6641-12.037s0.88806-8.7163 2.6641-11.939c1.8417-3.2889 4.275-5.7221 7.3008-7.3008 3.0258-1.6445 6.3152-2.4668 9.8672-2.4668zm-546.76 4.2227c3.8954 0 7.0252 1.1028 9.5996 3.3262 2.1959 1.8965 2.9794 4.5262 3.3203 7.5195h-25.467c0.65568-3.0212 1.6327-5.6938 3.7051-7.5195v-0.019531h0.01953c2.4612-2.2269 5.3315-3.3066 8.8223-3.3066zm107.46 0c3.4907 0 6.2445 1.0659 8.5059 3.2695v0.017579h0.01954c2.2083 2.0951 3.3398 5.0711 3.3398 9.2285 0 3.6977-0.80719 7.1595-2.4414 10.428-1.6297 3.1945-3.8885 5.7511-6.7734 7.7344-2.7953 1.8993-5.8356 2.8457-9.2266 2.8457-3.4208 0-6.0628-1.0437-8.1894-3.1621l-0.01953-0.019531c-2.0262-2.091-3.0742-5.0232-3.0742-9.0547 0-3.7708 0.75414-7.2758 2.2637-10.543v-0.019531c1.575-3.3266 3.7033-5.8993 6.3828-7.8047 2.7284-1.9573 5.7559-2.9199 9.2129-2.9199zm179.73 0h0.00196c3.8944 4.24e-4 7.0238 1.1032 9.5976 3.3262 2.1959 1.8965 2.9794 4.5262 3.3203 7.5195h-25.467c0.65565-3.0212 1.6346-5.6938 3.707-7.5195v-0.019531h0.01758c2.4612-2.2269 5.3316-3.3066 8.8223-3.3066zm61.111 0c3.8953 3.9e-5 7.0253 1.1028 9.5996 3.3262 2.1959 1.8965 2.9794 4.5262 3.3203 7.5195h-25.469c0.65565-3.0212 1.6346-5.6938 3.707-7.5195v-0.019531h0.01954c2.4612-2.2269 5.3316-3.3066 8.8223-3.3066zm95.645 24.121c-1.4409 0-2.7871 0.26042-4.0371 0.78125-1.2327 0.52087-2.3084 1.242-3.2285 2.1621-0.92014 0.90273-1.6493 1.9705-2.1875 3.2031-0.52084 1.2327-0.78125 2.5608-0.78125 3.9844 0 1.4757 0.25043 2.8298 0.7539 4.0625 0.50347 1.2326 1.1986 2.3003 2.084 3.2031 0.90273 0.88543 1.9705 1.5885 3.2031 2.1094 1.25 0.50347 2.6122 0.75586 4.0879 0.75586 1.4236 0 2.7617-0.26042 4.0117-0.78125 1.25-0.5382 2.3338-1.2593 3.2539-2.1621 0.9201-0.92013 1.6413-1.9958 2.1621-3.2285 0.53819-1.25 0.80664-2.5881 0.80664-4.0117 0-1.4583-0.25044-2.8025-0.75391-4.0352-0.50346-1.2327-1.2066-2.2923-2.1094-3.1777-0.8854-0.90279-1.9531-1.6059-3.2031-2.1094-1.2327-0.50347-2.5868-0.75586-4.0625-0.75586zm-0.00195 2.0586c1.1111 1.3e-5 2.1447 0.19033 3.0996 0.57226 0.95487 0.38193 1.7801 0.93682 2.4746 1.666 0.69445 0.7118 1.2333 1.5712 1.6152 2.5781 0.39931 1.0069 0.59766 2.1267 0.59766 3.3594 0 1.0938-0.19032 2.1274-0.57227 3.0996-0.36453 0.9548-0.89537 1.7962-1.5898 2.5254-0.67713 0.71184-1.5005 1.2847-2.4727 1.7188-0.9722 0.41667-2.0579 0.625-3.2559 0.625-1.1111 0-2.1447-0.19032-3.0996-0.57227-0.95486-0.39933-1.7782-0.95422-2.4726-1.666-0.69443-0.7292-1.2413-1.5985-1.6406-2.6055-0.38194-1.0069-0.57422-2.1168-0.57422-3.332 0-1.0937 0.18229-2.1194 0.54688-3.0742 0.38193-0.9722 0.92077-1.8216 1.6152-2.5508 0.69447-0.7292 1.5198-1.3021 2.4746-1.7188 0.9722-0.41667 2.056-0.625 3.2539-0.625zm-3.0195 2.291c-0.38195 0-0.66841 0.1122-0.85938 0.33789-0.19097 0.20833-0.28711 0.50477-0.28711 0.88672v9.3477c0 0.19097 0.08812 0.32118 0.26172 0.39062 0.17363 0.06944 0.52824 0.10547 1.0664 0.10547s0.87673-0.036029 1.0156-0.10547c0.15625-0.069447 0.23438-0.19965 0.23438-0.39062v-3.6445h0.70312c0.57289 0 0.99957 0.13021 1.2774 0.39062 0.29513 0.24304 0.54557 0.68576 0.7539 1.3281l0.54688 1.7969c0.03474 0.13889 0.07879 0.25109 0.13086 0.33789 0.06944 0.069467 0.1556 0.12957 0.25976 0.18164 0.12154 0.034733 0.26976 0.060792 0.44336 0.078125 0.19098 0.017333 0.43338 0.027344 0.72852 0.027344 0.32986 0 0.59028-0.010011 0.78125-0.027344 0.19097-0.0174 0.33919-0.033448 0.44336-0.050781 0.10419-0.03474 0.16431-0.078793 0.18164-0.13086 0.03473-0.069446 0.05273-0.13954 0.05273-0.20898 0-0.10417-0.06011-0.3546-0.18164-0.75391l-0.625-1.668c-0.26041-0.65974-0.57291-1.1545-0.9375-1.4844-0.3646-0.32986-0.75521-0.56423-1.1719-0.70312 0.76388-0.19097 1.3709-0.5115 1.8223-0.96289 0.45139-0.46873 0.67774-1.1198 0.67774-1.9531 0-0.53819-0.09615-0.99891-0.28711-1.3809-0.19098-0.39931-0.47743-0.72787-0.85938-0.98828-0.3646-0.26042-0.81532-0.45269-1.3535-0.57422-0.5208-0.12153-1.1298-0.18164-1.8242-0.18164h-2.9941zm1.4316 2.0312h1.1992c0.36458 0 0.66709 0.034076 0.91015 0.10352 0.24306 0.069447 0.43534 0.17361 0.57422 0.3125 0.15627 0.12153 0.26044 0.26975 0.3125 0.44336 0.05207 0.17361 0.07617 0.3559 0.07617 0.54688 0 0.45142-0.13823 0.81597-0.41601 1.0938-0.27773 0.27777-0.78057 0.41602-1.5098 0.41602h-1.1465v-2.916z" fill="#fff" shape-rendering="auto" stroke-width="9" style="font-feature-settings:normal;font-variant-alternates:normal;font-variant-caps:normal;font-variant-east-asian:normal;font-variant-ligatures:normal;font-variant-numeric:normal;font-variant-position:normal;font-variation-settings:normal;inline-size:0;isolation:auto;mix-blend-mode:normal;shape-margin:0;shape-padding:0;text-decoration-color:#000000;text-decoration-line:none;text-decoration-style:solid;text-indent:0;text-orientation:mixed;text-transform:none;white-space:pre"/>
 <path d="m42.539 0.00116c-3.637 1.9272e-4 -6.9366 2.1327-8.4303 5.4489l-33.283 73.958c-2.756 6.1186 1.7198 13.042 8.4303 13.042l15.173-0.0036c4.4346-0.0024 8.1524 3.1471 9.0325 7.334 0.83296 4.2472 4.58 7.4573 9.0763 7.4583 5.1067 2e-3 9.2471-4.137 9.2488-9.2438v-3.974c-1.214-0.32253-1.6496-1.2679-2.8884-1.2683-2.8549-5.79e-4 -3.4862-1.1796-4.0151-3.8764-0.55903-2.6586-2.5947-4.3627-5.4106-4.3611l-11.382-0.91608c-4.2612-2.53e-4 -5.3548-1.9088-3.6048-5.7936l20.69-44.592c0.94839-2.1057 0.58464-3.6683 2.8941-3.6684 2.3107-0.0012 3.6671-0.83718 4.616 1.2697l21.074 46.545c1.3324 2.9581 0.4862 4.8075-2.4731 6.1372-1.9088 0.85846-2.7522 1.1927-4.9389 1.1817l1.0429 2.3155c2.0939 4.6574 7.5667 6.7359 12.224 4.6413 4.6606-2.0939 6.7395-7.571 4.6413-12.229l-33.283-73.958c-1.4945-3.318-4.7957-5.4507-8.4344-5.4489z" color="#000000" fill="#00e900" stroke-width=".81612" style="-inkscape-stroke:none"/>
 <path d="m48.45 26.963c-2.3091 2.16e-4 -4.4033 1.3552-5.3516 3.4606l-21.133 46.959c-1.7499 3.8849 1.0908 8.2811 5.3516 8.2815l9.6347-0.0017c2.8156-0.0015 5.1774 1.9986 5.7362 4.657 0.52888 2.6967 2.9072 4.7345 5.7621 4.7352 1.2405 4.31e-4 2.3913-0.38363 3.3397-1.04l-0.0076-0.0017v-5.1308c-0.1233 0.01064-0.24794 0.01736-0.37406 0.0173-0.05048-1.1e-5 -0.09705-0.0062-0.14339-0.01265-2.0224-0.06725-3.6938-1.5328-4.0721-3.4619-0.40935-1.9468-2.1388-3.4116-4.2008-3.4105l-7.0564 0.0017c-3.1203-1.77e-4 -5.2001-3.2207-3.9186-6.0657l15.475-34.388c0.69452-1.5419 2.2288-2.5336 3.9162-2.5336 1.6873 9.5e-5 3.222 0.99178 3.9166 2.5336l15.475 34.388c1.2815 2.845-0.7984 6.0655-3.9186 6.0657l-1.7628-4.32e-4 1.2251 2.6561-0.0046 0.0072c1.624 1.0774 3.7447 1.3279 5.6537 0.46937 2.9592-1.3295 4.2794-4.8073 2.9469-7.7652l-21.133-46.959c-0.94887-2.1066-3.0452-3.4621-5.3555-3.461z" color="#000000" stroke-width=".21592" style="-inkscape-stroke:none"/>
</svg>
