<svg width="515.16mm" height="76.764mm" version="1.1" viewBox="0 0 515.16 76.764" xmlns="http://www.w3.org/2000/svg"><g transform="translate(-313.44 -156.3)" display="none"><rect transform="translate(-3.7474,-28.345)" x="-54.972" y="-93.964" width="987.92" height="515.02" display="inline" fill="#2bcfff" stroke="#ff2eff" stroke-linejoin="bevel" stroke-width=".52917"/></g><g transform="translate(-187.13 17.187)"><g transform="matrix(9,0,0,9,187.13,-17.187)" shape-rendering="auto"><path d="m9.7674 2.2442c-0.59054 3e-7 -1.122 0.12791-1.5875 0.38654h-0.00206c-0.45868 0.25893-0.82028 0.63298-1.078 1.1116-0.25127 0.47297-0.37517 1.0213-0.37517 1.6387 0 0.61786 0.12819 1.1708 0.38654 1.6505v0.00155c0.26471 0.47059 0.62898 0.84399 1.0862 1.1095h0.00156c0.46501 0.25834 0.99147 0.38654 1.5684 0.38654 0.70619 0 1.3093-0.17545 1.7932-0.53278 0.48552-0.36046 0.82521-0.82598 1.0098-1.387l0.05684-0.17363h-1.5668l-0.03669 0.072347c-0.24935 0.50527-0.64407 0.74207-1.2563 0.74207-0.42398 0-0.7679-0.12787-1.0547-0.38861-0.24607-0.22371-0.35164-0.53897-0.40979-0.89297h4.3708l0.01757-0.1111c0.02957-0.18481 0.04496-0.38899 0.04496-0.6134 0-0.58317-0.12487-1.1046-0.37672-1.5565-0.25102-0.45774-0.60567-0.81516-1.0568-1.0666-0.45132-0.25156-0.96577-0.37672-1.5353-0.37672zm-0.05271 1.2811c0.43282 3e-7 0.78056 0.12245 1.0666 0.36949 0.24399 0.21072 0.33109 0.50302 0.36897 0.83561h-2.8298c0.072853-0.33569 0.18159-0.63275 0.41186-0.83561v-0.00206h0.00206c0.27347-0.24743 0.59244-0.36742 0.98031-0.36742z" color="#000000" color-rendering="auto" dominant-baseline="auto" image-rendering="auto" solid-color="#000000" stop-color="#000000"/><path d="m21.824 2.2442c-0.68431 0-1.3134 0.1647-1.8769 0.49403-0.55504 0.32864-0.99706 0.77786-1.3183 1.34v0.00206c-0.31443 0.56306-0.47284 1.1864-0.47284 1.8629 0 0.49857 0.10849 0.94927 0.32453 1.3441v0.00155c0.22302 0.39399 0.53518 0.70244 0.92966 0.91829 0.39545 0.21638 0.85315 0.32194 1.3653 0.32194 0.68384 0 1.3135-0.1602 1.8769-0.48214 0.56195-0.32841 1.0116-0.77802 1.34-1.34 0.3292-0.56329 0.49403-1.1875 0.49403-1.865 0-0.50663-0.11589-0.95874-0.34778-1.3477-0.22301-0.39293-0.53728-0.70104-0.93741-0.91622h-0.0021c-0.40182-0.22284-0.86302-0.33383-1.3751-0.33383zm-0.1695 1.2811c0.38786 0 0.69389 0.11845 0.94516 0.36329v0.00206h0.0021c0.24537 0.23279 0.37104 0.56337 0.37104 1.0253 0 0.41086-0.08972 0.79542-0.2713 1.1586-0.18108 0.35494-0.43187 0.63901-0.75241 0.85938-0.31059 0.21103-0.64852 0.31626-1.0253 0.31626-0.38009 0-0.67373-0.11602-0.91002-0.3514l-0.0021-0.00207c-0.22513-0.23233-0.34158-0.55816-0.34158-1.0061 0-0.41898 0.08393-0.80853 0.25166-1.1715v-0.00206c0.175-0.36962 0.41128-0.65542 0.709-0.86713 0.30315-0.21748 0.63959-0.32453 1.0237-0.32453z" color="#000000" color-rendering="auto" dominant-baseline="auto" image-rendering="auto" solid-color="#000000" stop-color="#000000"/><path d="m14.113 0.88867v1.4512h-0.6875v1.248h0.6875v3.0957c0 0.5938 0.15228 1.0514 0.47852 1.3379 0.32012 0.28108 0.77206 0.41406 1.3359 0.41406h1.0859v-1.2695h-0.87305c-0.22745 0-0.369-0.046248-0.4375-0.10352-0.06315-0.064744-0.10742-0.18225-0.10742-0.37891v-3.0957h1.418v-1.248h-1.418v-1.4512z" color="#000000" color-rendering="auto" dominant-baseline="auto" image-rendering="auto" solid-color="#000000" stop-color="#000000"/><path d="m29.049 0c-0.77994 0-1.3952 0.15786-1.8359 0.49219-0.44168 0.32746-0.72178 0.85044-0.8457 1.543l-0.05469 0.30469h-0.6875l-0.21484 1.248h0.6875l-0.85742 4.8477h1.4844l0.85742-4.8477h1.0801l0.21484-1.248h-1.0781l0.04687-0.25781v-0.00195c0.05314-0.31219 0.1585-0.51313 0.30078-0.62695 0.14144-0.11316 0.3825-0.18359 0.73242-0.18359h0.11329l0.01758-0.10938 0.19531-1.1602z" color="#000000" color-rendering="auto" dominant-baseline="auto" image-rendering="auto" solid-color="#000000" stop-color="#000000"/><path d="m30.695 0.88867v1.4512h-0.68945v1.248h0.68945v3.0957c0 0.5938 0.15228 1.0514 0.47852 1.3379 0.32012 0.28108 0.77206 0.41406 1.3359 0.41406h1.084v-1.2695h-0.87305c-0.2284 0-0.36935-0.045911-0.4375-0.10352-0.06315-0.064744-0.10742-0.18225-0.10742-0.37891v-3.0957h1.418v-1.248h-1.418v-1.4512z" color="#000000" color-rendering="auto" dominant-baseline="auto" image-rendering="auto" solid-color="#000000" stop-color="#000000"/><path d="m37.781 2.2441c-0.42072 0-0.79457 0.089366-1.1133 0.27148-0.20724 0.11626-0.34674 0.31151-0.5 0.49219v-0.66797h-1.4727v6.0957h1.4727v-3.2012c0-0.5739 0.11952-0.95269 0.32031-1.1543 0.21666-0.20976 0.5368-0.32227 0.98633-0.32227h0.43945v-1.5137z" color="#000000" color-rendering="auto" dominant-baseline="auto" image-rendering="auto" solid-color="#000000" stop-color="#000000"/><path d="m54.779 2.2441c-0.45918 0-0.8737 0.076174-1.2383 0.23242-0.35676 0.15608-0.6392 0.37741-0.83789 0.66016-0.19767 0.27435-0.30078 0.58603-0.30078 0.92188 0 0.40385 0.10754 0.74589 0.32812 1.0059v0.00195h2e-3c0.21702 0.24695 0.47548 0.43405 0.76953 0.55469 0.28225 0.1158 0.64219 0.23285 1.082 0.35352 0.44734 0.12581 0.77047 0.24234 0.95898 0.33984h2e-3c0.17906 0.089527 0.24414 0.1931 0.24414 0.36914 0 0.16295-0.06526 0.28301-0.22852 0.39844-0.15211 0.10531-0.38491 0.16797-0.70703 0.16797-0.3008 0-0.53942-0.072811-0.73242-0.21484-0.18884-0.15108-0.2826-0.32109-0.30078-0.5332l-0.0098-0.11914h-1.5078l0.0059 0.13672c0.01511 0.37772 0.13732 0.72634 0.36328 1.0352v0.00195c0.22563 0.30084 0.5318 0.53967 0.9082 0.7168v0.00195h2e-3c0.38553 0.17052 0.81877 0.25391 1.293 0.25391 0.4653 0 0.8749-0.075626 1.2266-0.23242 0.35676-0.15608 0.6392-0.37545 0.83789-0.6582 0.19859-0.28261 0.30078-0.60885 0.30078-0.96484v-0.0039c-0.0075-0.39671-0.11897-0.73195-0.33984-0.98437-0.20943-0.23934-0.46405-0.42058-0.75586-0.54102-0.27721-0.12402-0.62778-0.24155-1.0547-0.35547h-2e-3c-0.31252-0.090307-0.54747-0.16408-0.70508-0.21875-0.14874-0.058203-0.27165-0.13334-0.37109-0.22656-0.08934-0.083759-0.12695-0.17178-0.12695-0.29492 0-0.15975 0.05589-0.269 0.19727-0.36914 0.1375-0.097398 0.35347-0.1543 0.6543-0.1543 0.30346 0 0.52748 0.071147 0.68945 0.20312 0.1642 0.13379 0.25078 0.29996 0.26953 0.53125l0.0098 0.12109h1.4668l-0.0059-0.13867c-0.02963-0.60741-0.26718-1.1047-0.70312-1.459-4.52e-4 -3.807e-4 -0.0015 3.802e-4 -2e-3 0-0.4294-0.36097-0.99664-0.53906-1.6816-0.53906z" color="#000000" color-rendering="auto" dominant-baseline="auto" image-rendering="auto" solid-color="#000000" stop-color="#000000"/><path d="m2.5215 2.2441c-0.47374 0.00878-0.9053 0.098648-1.2871 0.30078-0.38937 0.20217-0.69606 0.50555-0.91211 0.90039-0.21722 0.39698-0.32227 0.87177-0.32227 1.418v3.5723h1.459v-3.3926c0-0.50005 0.12318-0.86062 0.35547-1.1055h0.00195c0.23523-0.2543 0.54672-0.38086 0.9707-0.38086s0.76133 0.12918 0.99414 0.38086c0.23229 0.24485 0.35547 0.60542 0.35547 1.1055v3.3926h1.4609v-3.5723c0-0.5462-0.10505-1.021-0.32227-1.418-0.21604-0.39484-0.52274-0.69822-0.91211-0.90039-0.38036-0.20137-0.81215-0.30078-1.2891-0.30078-0.093867 0-0.45145-0.00188-0.55273 0z" color="#000000" color-rendering="auto" dominant-baseline="auto" image-rendering="auto" solid-color="#000000" stop-color="#000000"/><path d="m41.677 2.2442c-0.59054 3e-7 -1.122 0.12791-1.5875 0.38654h-0.0021c-0.45868 0.25893-0.82027 0.63298-1.078 1.1116-0.25127 0.47297-0.37517 1.0213-0.37517 1.6387 0 0.61786 0.12819 1.1708 0.38654 1.6505v0.00155c0.26471 0.47059 0.62898 0.84399 1.0862 1.1095h0.0015c0.46501 0.25834 0.99147 0.38654 1.5684 0.38654 0.70619 0 1.3093-0.17545 1.7932-0.53278 0.48552-0.36046 0.82522-0.82598 1.0098-1.387l0.05684-0.17363h-1.5668l-0.03669 0.072347c-0.24935 0.50527-0.64407 0.74207-1.2563 0.74207-0.42398 0-0.7679-0.12787-1.0547-0.38861-0.24607-0.22371-0.35164-0.53897-0.40979-0.89297h4.3708l0.01757-0.1111c0.02957-0.18481 0.04496-0.38899 0.04496-0.6134 0-0.58317-0.12487-1.1046-0.37672-1.5565-0.25102-0.45774-0.60567-0.81516-1.0568-1.0666-0.45132-0.25156-0.96577-0.37672-1.5353-0.37672zm-0.05271 1.2811c0.43282 3e-7 0.78056 0.12245 1.0666 0.36949 0.24399 0.21072 0.33109 0.50302 0.36897 0.83561h-2.8298c0.07285-0.33569 0.18159-0.63275 0.41186-0.83561v-0.00207h0.0021c0.27347-0.24743 0.59244-0.36742 0.9803-0.36742z" color="#000000" color-rendering="auto" dominant-baseline="auto" image-rendering="auto" solid-color="#000000" stop-color="#000000"/><path d="m48.467 2.2442c-0.59054 3e-7 -1.122 0.12791-1.5875 0.38654h-0.0021c-0.45868 0.25893-0.82027 0.63298-1.078 1.1116-0.25127 0.47297-0.37517 1.0213-0.37517 1.6387 0 0.61786 0.12819 1.1708 0.38654 1.6505v0.00155c0.26471 0.47059 0.62898 0.84399 1.0862 1.1095h0.0015c0.46501 0.25834 0.99147 0.38654 1.5684 0.38654 0.70619 0 1.3093-0.17545 1.7932-0.53278 0.48552-0.36046 0.82521-0.82598 1.0098-1.387l0.05684-0.17363h-1.5668l-0.03669 0.072347c-0.24935 0.50527-0.64407 0.74207-1.2563 0.74207-0.42398 0-0.7679-0.12787-1.0547-0.38861-0.24607-0.22371-0.35164-0.53897-0.40979-0.89297h4.3708l0.01757-0.1111c0.02957-0.18481 0.04496-0.38899 0.04496-0.6134 0-0.58317-0.12487-1.1046-0.37672-1.5565-0.25102-0.45774-0.60567-0.81516-1.0568-1.0666-0.45132-0.25156-0.96577-0.37672-1.5353-0.37672zm-0.05271 1.2811c0.43282 3e-7 0.78056 0.12245 1.0666 0.36949 0.24399 0.21072 0.33109 0.50302 0.36897 0.83561h-2.8298c0.07285-0.33569 0.18159-0.63275 0.41186-0.83561v-0.00207h0.0021c0.27347-0.24743 0.59244-0.36742 0.9803-0.36742z" color="#000000" color-rendering="auto" dominant-baseline="auto" image-rendering="auto" solid-color="#000000" stop-color="#000000"/></g></g></svg>
