<svg width="515.16mm" height="76.764mm" version="1.1" viewBox="0 0 515.16 76.764" xmlns="http://www.w3.org/2000/svg">
 <path d="m261.44 0c-7.0195 0-12.557 1.4207-16.523 4.4297-3.9751 2.9471-6.4961 7.654-7.6114 13.887l-0.49194 2.742h-6.1878l-1.9332 11.232h6.1872l-7.7168 43.629h13.36l7.7168-43.629h9.7209l1.9332-11.232h-9.7028l0.42165-2.3203v-0.01701c0.47826-2.8097 1.4268-4.6182 2.7073-5.6425 1.273-1.0184 3.4426-1.6526 6.5918-1.6526h1.0196l0.15814-0.98448 1.7575-10.442zm-134.42 7.998v13.061h-6.1877v11.232h6.1877v27.861c0 5.3442 1.3706 9.4626 4.3067 12.041 2.8811 2.5297 6.9485 3.7269 12.023 3.7269h9.773v-11.426h-7.8574c-2.047 0-3.3212-0.41628-3.9378-0.93173-0.56835-0.5827-0.96634-1.6402-0.96634-3.4101v-27.861h12.762v-11.232h-12.762v-13.061zm149.24 0v13.061h-6.2048v11.232h6.2048v27.861c0 5.3442 1.3706 9.4626 4.3067 12.041 2.8811 2.5297 6.9485 3.7269 12.023 3.7269h9.756v-11.426h-7.8574c-2.0556 0-3.3244-0.41324-3.9378-0.93173-0.56835-0.5827-0.96635-1.6402-0.96635-3.4101v-27.861h12.762v-11.232h-12.762v-13.061zm64.969 12.198-1.1953 5.16e-4c-3.7865 0-7.151 0.80424-10.02 2.4433-1.8652 1.0463-3.1206 2.8041-4.5 4.4302v-6.012h-13.254v54.861h13.254v-28.811c0-5.1651 1.0754-8.574 2.8825-10.389 1.9499-1.8878 4.8312-2.9006 8.877-2.9006h3.9553zm-318.53 5.16e-4c-4.2635 0.07908-8.1477 0.88822-11.584 2.7073-3.5043 1.8195-6.2644 4.5498-8.2088 8.1034-1.955 3.5728-2.9006 7.8459-2.9006 12.762v32.15h13.131v-30.533c0-4.5004 1.1087-7.7459 3.1993-9.9498h0.01755c2.1171-2.2887 4.9206-3.4277 8.7364-3.4277 3.8158 0 6.852 1.1626 8.9473 3.4277 2.0906 2.2036 3.1993 5.4491 3.1993 9.9498v30.533h13.148v-32.15c0-4.9158-0.94562-9.189-2.9006-12.762-1.9444-3.5536-4.7045-6.2839-8.2088-8.1034-3.4232-1.8123-7.3093-2.7073-11.602-2.7073-0.84471 0-4.062-0.01692-4.9739 0zm470.32 0c-4.1326 0-7.8637 0.68565-11.145 2.0919-3.2108 1.4047-5.7529 3.397-7.5411 5.9418-1.779 2.4692-2.7068 5.274-2.7068 8.2967 0 3.6346 0.96809 6.7131 2.9533 9.0532v0.01755h0.018c1.9532 2.2226 4.2797 3.9062 6.9262 4.9919 2.5402 1.0422 5.7796 2.0957 9.7379 3.1817 4.0261 1.1323 6.9339 2.1812 8.6305 3.0587h0.018c1.6115 0.80574 2.1973 1.7379 2.1973 3.3223 0 1.4666-0.58734 2.547-2.0567 3.5858-1.369 0.94779-3.4638 1.5121-6.3629 1.5121-2.7072 0-4.8548-0.65547-6.5918-1.9337-1.6996-1.3597-2.5437-2.8897-2.7073-4.7987l-0.0882-1.0723h-13.57l0.0531 1.2304c0.13599 3.3995 1.2354 6.537 3.269 9.3167v0.01755c2.0307 2.7076 4.7866 4.8571 8.1742 6.4513v0.01755h0.018c3.4698 1.5347 7.3684 2.2851 11.636 2.2851 4.1877 0 7.8743-0.68072 11.04-2.0919 3.2108-1.4047 5.7529-3.3789 7.5411-5.9237 1.7873-2.5435 2.7068-5.4798 2.7068-8.6837v-0.0351c-0.0675-3.5704-1.0704-6.5876-3.0582-8.8594-1.8849-2.1541-4.1769-3.785-6.8032-4.869-2.4949-1.1162-5.6496-2.174-9.4919-3.1993h-0.018c-2.8126-0.81274-4.9272-1.4768-6.3457-1.9689-1.3387-0.52383-2.4449-1.2002-3.3398-2.0392-0.80406-0.75383-1.1426-1.5458-1.1426-2.6541 0-1.4378 0.50319-2.421 1.7756-3.3223 1.2375-0.87658 3.1811-1.3885 5.8885-1.3885 2.7311 0 4.7476 0.64004 6.2053 1.8278 1.4778 1.2041 2.2569 2.7 2.4257 4.7816l0.0882 1.0899h13.201l-0.0531-1.2485c-0.26667-5.4667-2.4048-9.9423-6.3283-13.131h-5.1e-4v-5.17e-4h-0.00207c-4e-3 -1.84e-4 -9e-3 0.0017-0.0126 0.0016h-0.00104l-5.1e-4 -5.18e-4h-5.2e-4l-5.2e-4 -5.16e-4c-3.8646-3.2487-8.9698-4.8514-15.134-4.8514zm-405.1 1e-3c-5.3149 3e-6 -10.098 1.1512-14.288 3.4789h-0.01863c-4.1281 2.3304-7.3828 5.697-9.7022 10.005-2.2614 4.2567-3.3765 9.1919-3.3765 14.748 0 5.5607 1.1537 10.537 3.4789 14.854v0.01395c2.3824 4.2353 5.6612 7.5958 9.7761 9.9854h0.01395c4.1851 2.3251 8.923 3.4789 14.115 3.4789 6.3557 0 11.784-1.5791 16.139-4.7951 4.3697-3.2441 7.4265-7.4338 9.0878-12.483l0.51156-1.5627h-14.101l-0.33021 0.65112c-2.2442 4.5474-5.7967 6.6787-11.307 6.6787-3.8158 0-6.9112-1.1508-9.4924-3.4975-2.2146-2.0134-3.1648-4.8507-3.6881-8.0367h39.337l0.15813-0.99994c0.26613-1.6633 0.40518-3.5009 0.40518-5.5206 0-5.2485-1.1238-9.9413-3.3905-14.008-2.2592-4.1197-5.4514-7.3365-9.5116-9.5994-4.0619-2.264-8.692-3.3905-13.818-3.3905zm108.51 0c-6.1588 0-11.82 1.4823-16.892 4.4462-4.9954 2.9578-8.9738 7.001-11.865 12.06v0.01863c-2.8299 5.0675-4.2556 10.677-4.2556 16.766 0 4.4871 0.97639 8.5435 2.9208 12.097v0.01395c2.0072 3.5459 4.8166 6.322 8.3669 8.2646 3.559 1.9474 7.6788 2.8975 12.288 2.8975 6.1546 0 11.821-1.4418 16.892-4.3393 5.0576-2.9557 9.1041-7.0024 12.06-12.06 2.9628-5.0696 4.4462-10.688 4.4462-16.785 0-4.5597-1.043-8.6283-3.13-12.129-2.0071-3.5364-4.8355-6.3094-8.4367-8.246h-0.0189c-3.6164-2.0056-7.7673-3.0045-12.376-3.0045zm178.68 0c-5.3149 3e-6 -10.098 1.1512-14.288 3.4789h-0.0189c-4.1281 2.3304-7.3827 5.697-9.7023 10.005-2.2614 4.2567-3.3765 9.1919-3.3765 14.748 0 5.5607 1.1537 10.537 3.4789 14.854v0.01395c2.3824 4.2353 5.6612 7.5958 9.7762 9.9854h0.0135c4.1851 2.3251 8.923 3.4789 14.115 3.4789 6.3557 0 11.783-1.5791 16.139-4.7951 4.3697-3.2441 7.4271-7.4338 9.0883-12.483l0.51156-1.5627h-14.101l-0.33021 0.65112c-2.2442 4.5474-5.7967 6.6787-11.307 6.6787-3.8158 0-6.9112-1.1508-9.4924-3.4975-2.2146-2.0134-3.1648-4.8507-3.6882-8.0367h39.337l0.15813-0.99994c0.26613-1.6633 0.40464-3.5009 0.40464-5.5206 0-5.2485-1.1238-9.9413-3.3905-14.008-2.2592-4.1197-5.4509-7.3365-9.5111-9.5994-4.0619-2.264-8.692-3.3905-13.818-3.3905zm61.11 0c-5.3149 3e-6 -10.098 1.1512-14.288 3.4789h-0.0189c-4.1281 2.3304-7.3827 5.697-9.7022 10.005-2.2614 4.2567-3.3765 9.1919-3.3765 14.748 0 5.5607 1.1537 10.537 3.4788 14.854v0.01395c2.3824 4.2353 5.6612 7.5958 9.7762 9.9854h0.0135c4.1851 2.3251 8.923 3.4789 14.115 3.4789 6.3557 0 11.784-1.5791 16.139-4.7951 4.3697-3.2441 7.4265-7.4338 9.0878-12.483l0.51156-1.5627h-14.101l-0.33021 0.65112c-2.2442 4.5474-5.7967 6.6787-11.307 6.6787-3.8158 0-6.9112-1.1508-9.4924-3.4975-2.2146-2.0134-3.1648-4.8507-3.6881-8.0367h39.337l0.15813-0.99994c0.26613-1.6633 0.40464-3.5009 0.40464-5.5206 0-5.2485-1.1238-9.9413-3.3905-14.008-2.2589-4.1197-5.4506-7.3365-9.5108-9.5994-4.0619-2.264-8.692-3.3905-13.818-3.3905zm-348.77 11.53c3.8954 3e-6 7.025 1.102 9.5994 3.3254 2.1959 1.8965 2.9798 4.5272 3.3207 7.5205h-25.468c0.65568-3.0212 1.6343-5.6947 3.7068-7.5205v-0.01863h0.01863c2.4612-2.2269 5.3319-3.3068 8.8227-3.3068zm107.46 0c3.4907 0 6.245 1.066 8.5065 3.2696v0.01863h0.0189c2.2083 2.0951 3.3393 5.07 3.3393 9.2273 0 3.6977-0.80748 7.1592-2.4417 10.428-1.6297 3.1945-3.8868 5.7511-6.7717 7.7344-2.7953 1.8993-5.8368 2.8463-9.2279 2.8463-3.4208 0-6.0636-1.0442-8.1902-3.1626l-0.0189-0.01863c-2.0262-2.091-3.0742-5.0238-3.0742-9.0553 0-3.7708 0.75492-7.2768 2.2645-10.544v-0.01809c1.575-3.3266 3.7015-5.8988 6.381-7.8042 2.7284-1.9573 5.7564-2.9208 9.2134-2.9208zm179.73 0h5.3e-4c3.8953 2.8e-5 7.0246 1.102 9.5989 3.3254 2.1959 1.8965 2.9798 4.5272 3.3207 7.5205h-25.468c0.65565-3.0212 1.6343-5.6947 3.7068-7.5205v-0.01863h0.0189c2.4613-2.2267 5.332-3.3066 8.8224-3.3067zm61.11 0h5.2e-4c3.8953 2.8e-5 7.0246 1.102 9.5989 3.3254 2.1959 1.8965 2.9798 4.5272 3.3207 7.5205h-25.468c0.65565-3.0212 1.6343-5.6947 3.7068-7.5205v-0.01863h0.0189c2.4613-2.2267 5.332-3.3066 8.8224-3.3067z" fill="#98bb87" shape-rendering="auto"/>
</svg>
