<?xml version="1.0" standalone="no"?>
<!DOCTYPE svg PUBLIC "-//W3C//DTD SVG 20010904//EN"
 "http://www.w3.org/TR/2001/REC-SVG-20010904/DTD/svg10.dtd">
<svg version="1.0" xmlns="http://www.w3.org/2000/svg"
 width="1040.000000pt" height="1040.000000pt" viewBox="0 0 1040.000000 1040.000000"
 preserveAspectRatio="xMidYMid meet">
<metadata>
Created by potrace 1.14, written by Peter Selinger 2001-2017
</metadata>
<g transform="translate(0.000000,1040.000000) scale(0.100000,-0.100000)"
fill="#000000" stroke="none">
<path d="M5099 10395 c-2 -2 -24 -6 -49 -10 -50 -8 -58 -10 -80 -17 -8 -3 -40
-13 -70 -23 -62 -21 -141 -62 -215 -113 -51 -34 -185 -161 -185 -174 0 -5 -9
-18 -20 -31 -12 -13 -30 -39 -40 -58 -21 -37 -110 -219 -110 -225 0 -2 -13
-32 -29 -66 -33 -72 -50 -110 -168 -373 -47 -104 -88 -194 -91 -200 -4 -5 -7
-12 -8 -15 -3 -15 -80 -188 -100 -222 -8 -15 -15 -30 -14 -33 0 -3 -14 -36
-31 -73 -17 -37 -40 -87 -51 -112 -11 -25 -31 -67 -43 -95 -13 -27 -45 -97
-70 -155 -26 -58 -54 -121 -63 -140 -9 -19 -16 -37 -17 -40 0 -3 -12 -27 -25
-55 -13 -27 -24 -52 -25 -55 -1 -3 -10 -23 -20 -45 -10 -22 -19 -42 -20 -45
-1 -3 -12 -27 -25 -55 -13 -27 -24 -52 -25 -55 -1 -3 -11 -26 -23 -52 -12 -27
-30 -67 -41 -90 -10 -24 -30 -68 -44 -98 -14 -30 -55 -122 -92 -205 -37 -82
-83 -183 -101 -223 -19 -41 -34 -75 -34 -77 0 -3 -39 -90 -106 -233 -19 -40
-34 -79 -34 -86 0 -8 -7 -19 -15 -26 -8 -7 -15 -19 -15 -26 0 -8 -4 -22 -10
-32 -12 -22 -100 -213 -100 -218 0 -2 -18 -42 -40 -89 -22 -47 -40 -87 -40
-90 0 -5 -87 -194 -100 -217 -6 -10 -10 -25 -10 -33 0 -8 -5 -15 -12 -15 -6 0
-8 -3 -5 -6 4 -4 0 -19 -8 -33 -12 -23 -39 -81 -98 -211 -53 -120 -67 -152
-93 -210 -15 -36 -31 -67 -34 -70 -3 -3 -6 -10 -7 -15 -1 -9 -27 -67 -93 -210
-15 -33 -42 -94 -60 -135 -18 -41 -52 -117 -76 -169 -24 -51 -44 -95 -44 -97
0 -2 -13 -32 -29 -66 -16 -35 -40 -88 -54 -118 -13 -30 -62 -138 -107 -240
-46 -102 -102 -227 -126 -278 -24 -51 -44 -94 -44 -96 0 -3 -13 -33 -29 -68
-56 -123 -84 -183 -101 -223 -17 -40 -45 -100 -101 -223 -16 -35 -29 -65 -29
-67 0 -3 -15 -36 -34 -74 -18 -38 -36 -80 -40 -95 -3 -14 -11 -26 -16 -26 -6
0 -10 -6 -10 -14 0 -14 -10 -38 -90 -211 -30 -65 -51 -113 -55 -125 -2 -6 -41
-91 -87 -190 -16 -36 -37 -83 -46 -105 -8 -22 -18 -44 -22 -50 -8 -11 -46
-134 -56 -180 -3 -16 -7 -83 -9 -147 -3 -114 10 -205 45 -308 13 -39 81 -182
90 -190 4 -3 20 -25 37 -50 71 -103 203 -215 315 -268 89 -42 138 -62 138 -55
0 3 7 0 15 -7 8 -7 15 -10 15 -7 0 3 15 1 32 -4 62 -19 114 -21 933 -24 795
-2 886 -5 950 -25 17 -5 41 -11 55 -14 84 -14 265 -122 356 -211 65 -64 141
-155 129 -155 -3 0 1 -8 11 -18 26 -26 79 -147 104 -237 45 -167 54 -192 87
-265 19 -41 38 -77 42 -80 3 -3 23 -30 44 -61 56 -84 227 -239 263 -239 8 0
14 -4 14 -8 0 -7 88 -52 102 -52 3 0 23 -8 44 -17 22 -9 43 -16 47 -15 4 1 17
-3 28 -8 42 -23 296 -34 384 -16 52 10 70 14 70 16 0 1 10 3 23 6 13 2 36 11
52 19 17 9 32 15 35 14 12 -1 103 46 160 85 92 61 182 152 246 248 52 79 110
206 123 269 3 13 7 35 10 49 16 70 18 151 18 575 0 253 -1 465 -1 472 -1 6
-25 13 -58 16 -32 2 -71 7 -88 11 -38 9 -125 53 -147 74 -10 9 -27 26 -39 37
-49 46 -104 151 -114 215 -2 15 -9 36 -26 80 -24 61 -118 169 -146 170 -7 0
-13 3 -13 8 0 7 -62 37 -115 54 -17 6 -204 11 -440 12 -448 3 -478 6 -569 64
-47 29 -136 121 -136 139 0 6 -4 13 -8 15 -5 2 -18 31 -30 66 -16 47 -20 82
-18 140 5 114 1 104 147 421 22 46 39 90 39 97 0 8 5 14 10 14 6 0 10 7 10 15
0 8 9 31 19 52 11 21 52 110 91 198 40 88 79 176 88 195 9 19 16 37 17 40 1 3
10 23 20 45 10 22 19 42 20 45 1 3 15 34 32 70 16 36 40 88 52 115 12 28 30
66 39 85 9 19 17 37 17 40 1 3 16 37 34 75 101 220 121 265 121 275 0 6 4 10
8 10 5 0 9 6 9 13 0 6 35 89 78 182 42 94 86 190 97 215 44 100 103 230 144
318 24 52 44 96 44 98 0 3 13 33 29 67 30 65 40 88 116 257 26 58 60 134 77
170 28 61 49 108 53 120 1 3 12 28 25 55 13 28 24 52 25 55 1 3 10 23 20 45
10 22 20 47 21 55 2 8 8 16 13 18 6 2 11 10 11 17 0 18 42 95 52 95 4 0 8 5 8
11 0 9 32 42 84 86 30 25 98 54 166 70 37 8 139 5 180 -6 100 -28 219 -118
252 -192 7 -16 15 -29 18 -29 3 0 17 -29 30 -65 13 -36 28 -65 32 -65 4 0 8
-6 8 -14 0 -8 17 -49 37 -93 21 -43 36 -81 35 -85 -1 -5 3 -8 10 -8 6 0 9 -3
6 -6 -3 -3 14 -49 39 -102 24 -53 50 -110 58 -127 7 -16 26 -59 43 -95 17 -36
30 -68 31 -73 0 -4 14 -34 30 -66 17 -32 28 -61 25 -63 -2 -3 2 -11 11 -18 8
-7 15 -17 15 -22 0 -5 11 -33 24 -61 59 -130 69 -152 68 -154 -1 -2 14 -34 33
-73 19 -38 35 -71 35 -74 0 -2 21 -48 46 -103 25 -54 48 -106 50 -117 2 -10 7
-23 13 -30 5 -6 46 -94 91 -196 45 -102 96 -214 112 -250 16 -36 34 -74 38
-85 5 -11 30 -64 55 -118 25 -54 45 -100 45 -102 0 -2 19 -43 41 -92 23 -48
42 -94 42 -100 0 -7 4 -13 9 -13 4 0 8 -4 8 -9 0 -5 16 -44 35 -85 19 -42 35
-78 35 -80 0 -3 25 -57 55 -121 30 -65 55 -119 55 -121 0 -3 18 -43 40 -90 22
-47 40 -87 40 -89 0 -2 16 -39 36 -82 110 -238 121 -269 128 -368 6 -73 -41
-199 -98 -270 -37 -44 -131 -114 -162 -120 -10 -2 -19 -4 -19 -5 0 -10 -135
-26 -217 -25 -103 1 -100 12 -33 -130 23 -49 53 -112 65 -140 62 -138 74 -164
98 -215 103 -218 308 -408 507 -470 22 -7 45 -15 50 -19 6 -3 15 -6 20 -6 10
-1 72 -13 110 -22 29 -7 214 -6 259 1 44 7 148 32 154 36 1 2 5 4 10 5 110 33
241 116 344 218 50 50 168 214 168 234 0 4 6 20 14 34 20 38 56 155 63 202 8
59 8 274 -1 322 -15 82 -53 183 -132 352 -19 40 -34 75 -34 78 0 3 -13 34 -30
68 -16 35 -30 69 -30 75 0 7 -4 12 -10 12 -5 0 -10 5 -10 12 0 6 -8 30 -19 52
-17 38 -30 66 -84 186 -11 25 -21 47 -22 50 -1 3 -12 28 -25 55 -12 28 -31 70
-42 95 -11 25 -34 74 -50 110 -17 36 -36 79 -43 95 -7 17 -28 62 -45 100 -18
39 -49 108 -70 155 -21 47 -49 111 -64 142 -69 152 -79 175 -88 198 -5 14 -10
27 -10 30 0 3 -9 17 -19 32 -10 14 -19 31 -19 36 0 9 -35 89 -95 217 -13 28
-30 66 -38 85 -18 41 -56 126 -92 205 -14 30 -37 81 -51 113 -14 31 -53 118
-86 192 -33 74 -64 141 -70 148 -6 6 -8 12 -5 12 4 0 -4 21 -17 48 -13 26 -34
70 -46 97 -27 62 -55 125 -85 190 -36 77 -74 162 -115 255 -21 47 -49 110 -63
140 -14 30 -64 143 -112 250 -48 107 -92 201 -99 209 -6 8 -10 15 -8 15 5 1
-11 41 -57 139 -23 49 -41 90 -41 91 0 2 -17 39 -37 82 -20 43 -38 84 -39 89
-1 6 -21 51 -44 100 -64 138 -91 196 -110 240 -10 22 -37 80 -59 128 -23 49
-41 91 -41 95 0 4 -11 29 -24 57 -13 27 -33 70 -44 95 -11 25 -39 85 -61 133
-23 49 -41 91 -41 93 0 3 -21 50 -94 207 -20 43 -36 80 -36 82 0 3 -39 90
-106 233 -19 40 -34 75 -34 77 0 2 -15 37 -34 77 -44 95 -75 164 -96 213 -10
22 -29 65 -43 95 -23 52 -40 88 -88 198 -12 26 -36 79 -55 119 -19 40 -34 75
-34 78 0 4 -17 43 -39 88 -58 123 -101 217 -101 221 0 5 -55 125 -111 243 -51
108 -97 174 -184 266 -24 25 -141 117 -149 117 -3 0 -21 11 -41 24 -42 29
-177 82 -230 90 -20 4 -42 9 -48 13 -11 6 -262 15 -268 8z"/>
</g>
</svg>
